<?xml version="1.0" encoding="UTF-8" standalone="no"?>
<!-- Created with Inkscape (http://www.inkscape.org/) -->

<svg
   width="48"
   height="48"
   viewBox="0 0 12.7 12.7"
   version="1.1"
   id="svg5"
   xmlns:xlink="http://www.w3.org/1999/xlink"
   xmlns="http://www.w3.org/2000/svg"
   xmlns:rdf="http://www.w3.org/1999/02/22-rdf-syntax-ns#"
   xmlns:cc="http://creativecommons.org/ns#"
   xmlns:dc="http://purl.org/dc/elements/1.1/">
  <title
     id="title29830">Uniconv logo</title>
  <defs
     id="defs2">
    <linearGradient
       id="linearGradient20237">
      <stop
         style="stop-color:#003bf2;stop-opacity:0.87843138;"
         offset="0"
         id="stop20233" />
      <stop
         style="stop-color:#0f096e;stop-opacity:1;"
         offset="1"
         id="stop20235" />
    </linearGradient>
    <linearGradient
       id="linearGradient20193">
      <stop
         style="stop-color:#0b02b2;stop-opacity:1;"
         offset="0"
         id="stop20189" />
      <stop
         style="stop-color:#003bf2;stop-opacity:0.87894738;"
         offset="1"
         id="stop20191" />
    </linearGradient>
    <linearGradient
       xlink:href="#linearGradient20193"
       id="linearGradient20195"
       x1="1.4301697"
       y1="4.2859855"
       x2="11.0391"
       y2="4.2859855"
       gradientUnits="userSpaceOnUse"
       gradientTransform="matrix(1.1191958,0,0,1.19247,-0.53927869,-0.29174213)" />
    <linearGradient
       xlink:href="#linearGradient20237"
       id="linearGradient20230"
       gradientUnits="userSpaceOnUse"
       gradientTransform="matrix(-1.1191958,0,0,-1.19247,13.403721,12.70184)"
       x1="1.4301697"
       y1="4.2859855"
       x2="11.0391"
       y2="4.2859855" />
  </defs>
  <g
     id="layer1">
    <path
       id="rect1514"
       style="fill:url(#linearGradient20195);fill-opacity:1;stroke:#0f096e;stroke-width:0.489763;stroke-linecap:round;stroke-linejoin:miter;stroke-dasharray:none;stroke-opacity:0;paint-order:normal"
       d="M 2.760134,3.8577337 A 0.1249449,0.13312509 0 0 0 2.700563,3.8749877 L 1.3599233,4.6773142 a 0.13458671,0.14339815 0 0 0 -0.00289,0.248339 L 2.6866865,5.7661853 A 0.11994065,0.12779321 0 0 0 2.8682917,5.6577302 l 0.00579,-0.5194784 a 0.27204063,0.28985124 0 0 0 0.010409,0.00123 H 11.297313 A 0.28081614,0.29920128 0 0 0 11.578395,4.8399979 V 4.6840927 A 0.28081614,0.29920128 0 0 0 11.297313,4.3846068 H 2.8844814 a 0.27204063,0.28985124 0 0 0 -0.00232,0 l 0.00462,-0.3919196 A 0.1249449,0.13312509 0 0 0 2.760134,3.8577337 Z" />
    <path
       id="rect1514-9"
       style="fill:url(#linearGradient20230);fill-opacity:1;stroke:#0f096e;stroke-width:0.489763;stroke-linecap:round;stroke-linejoin:miter;stroke-dasharray:none;stroke-opacity:0;paint-order:normal"
       d="m 10.104308,8.5523641 a 0.1249449,0.13312509 0 0 0 0.05957,-0.017254 l 1.34064,-0.8023265 a 0.13458671,0.14339815 0 0 0 0.0029,-0.248339 L 10.177756,6.6439125 A 0.11994065,0.12779321 0 0 0 9.9961504,6.7523676 l -0.0058,0.5194784 a 0.27204063,0.28985124 0 0 0 -0.01041,-0.00123 H 1.567129 A 0.28081614,0.29920128 0 0 0 1.286047,7.5700999 V 7.7260051 A 0.28081614,0.29920128 0 0 0 1.567129,8.025491 h 8.4128324 a 0.27204063,0.28985124 0 0 0 0.0023,0 l -0.0046,0.3919196 a 0.1249449,0.13312509 0 0 0 0.1266466,0.1349535 z" />
    <circle
       style="fill:#095e6e;fill-opacity:0;stroke:#0f096e;stroke-width:0.290438;stroke-linecap:round;stroke-linejoin:miter;stroke-dasharray:none;stroke-opacity:0;paint-order:normal"
       id="circle28610"
       cx="5.3378739"
       cy="10.050169"
       r="0.78082258" />
  </g>
  <metadata
     id="metadata29828">
    <rdf:RDF>
      <cc:Work
         rdf:about="">
        <dc:title>Uniconv logo</dc:title>
      </cc:Work>
    </rdf:RDF>
  </metadata>
</svg>
