<?xml version="1.0" encoding="UTF-8" standalone="no"?>
<!-- Created with Inkscape (http://www.inkscape.org/) -->

<svg
   width="48"
   height="48"
   viewBox="0 0 12.7 12.7"
   version="1.1"
   id="svg5"
   sodipodi:docname="uniconv-logo.svg"
   inkscape:version="1.3 (0e150ed6c4, 2023-07-21)"
   xmlns:inkscape="http://www.inkscape.org/namespaces/inkscape"
   xmlns:sodipodi="http://sodipodi.sourceforge.net/DTD/sodipodi-0.dtd"
   xmlns:xlink="http://www.w3.org/1999/xlink"
   xmlns="http://www.w3.org/2000/svg"
   xmlns:svg="http://www.w3.org/2000/svg">
  <sodipodi:namedview
     id="namedview7"
     pagecolor="#ffffff"
     bordercolor="#000000"
     borderopacity="0.25"
     inkscape:showpageshadow="2"
     inkscape:pageopacity="0.0"
     inkscape:pagecheckerboard="0"
     inkscape:deskcolor="#d1d1d1"
     inkscape:document-units="px"
     showgrid="false"
     inkscape:zoom="8"
     inkscape:cx="16"
     inkscape:cy="1.3125"
     inkscape:window-width="1920"
     inkscape:window-height="1017"
     inkscape:window-x="-8"
     inkscape:window-y="-8"
     inkscape:window-maximized="1"
     inkscape:current-layer="layer1" />
  <defs
     id="defs2">
    <linearGradient
       id="linearGradient4"
       inkscape:collect="always">
      <stop
         style="stop-color:#100b72;stop-opacity:1;"
         offset="0"
         id="stop4" />
      <stop
         style="stop-color:#1f51f1;stop-opacity:1;"
         offset="1"
         id="stop5" />
    </linearGradient>
    <inkscape:path-effect
       effect="fillet_chamfer"
       id="path-effect28602"
       is_visible="true"
       lpeversion="1"
       nodesatellites_param="F,0,0,1,0,0.19730953,0,1 @ F,0,0,1,0,0.19684327,0,1 @ F,0,0,1,0,0.21545444,0,1 @ F,0,0,1,0,0.19896673,0,1"
       unit="px"
       method="auto"
       mode="F"
       radius="0"
       chamfer_steps="1"
       flexible="false"
       use_knot_distance="true"
       apply_no_radius="true"
       apply_with_radius="true"
       only_selected="false"
       hide_knots="false" />
    <inkscape:path-effect
       effect="fillet_chamfer"
       id="path-effect28598"
       is_visible="true"
       lpeversion="1"
       nodesatellites_param="F,0,0,1,0,0.16536458,0,1 @ F,0,0,1,0,0.17247237,0,1 @ F,0,0,1,0,0.16019694,0,1 @ F,0,0,1,0,0.17053223,0,1"
       unit="px"
       method="auto"
       mode="F"
       radius="0"
       chamfer_steps="1"
       flexible="false"
       use_knot_distance="true"
       apply_no_radius="true"
       apply_with_radius="true"
       only_selected="false"
       hide_knots="false" />
    <inkscape:path-effect
       effect="fillet_chamfer"
       id="path-effect28542"
       is_visible="true"
       lpeversion="1"
       nodesatellites_param="F,0,0,1,0,0.15741334,0,1 @ F,0,0,1,0,0.27067219,0,1 @ F,0,0,1,0,0.26147445,0,1 @ F,0,0,1,0,0.096658148,0,1 @ F,0,0,1,0,0.14066055,0,1 @ F,0,0,1,0,0.1404256,0,1 @ F,0,0,1,0,0.26497422,0,1 @ F,0,0,1,0,0.25260801,0,1 @ F,0,0,1,0,0.10897686,0,1 @ F,0,0,1,0,0.15640564,0,1"
       unit="px"
       method="auto"
       mode="F"
       radius="0"
       chamfer_steps="1"
       flexible="false"
       use_knot_distance="true"
       apply_no_radius="true"
       apply_with_radius="true"
       only_selected="false"
       hide_knots="false" />
    <inkscape:path-effect
       effect="fillet_chamfer"
       id="path-effect28538"
       is_visible="true"
       lpeversion="1"
       nodesatellites_param="F,0,0,1,0,0.11639279,0,1 @ F,0,0,1,0,0,0,1 @ F,0,0,1,0,0,0,1 @ F,0,0,1,0,0.12610523,0,1 @ F,0,0,1,0,0.12297645,0,1 @ F,0,0,1,0,0,0,1 @ F,0,0,1,0,0,0,1 @ F,0,0,1,0,0.1167841,0,1"
       unit="px"
       method="auto"
       mode="F"
       radius="0"
       chamfer_steps="1"
       flexible="false"
       use_knot_distance="true"
       apply_no_radius="true"
       apply_with_radius="true"
       only_selected="false"
       hide_knots="false" />
    <inkscape:path-effect
       effect="fillet_chamfer"
       id="path-effect20656"
       is_visible="true"
       lpeversion="1"
       nodesatellites_param="F,0,0,1,0,0.26058468,0,1 @ F,0,0,1,0,0,0,1 @ F,0,0,1,0,0,0,1 @ F,0,0,1,0,0,0,1"
       unit="px"
       method="auto"
       mode="F"
       radius="0"
       chamfer_steps="1"
       flexible="false"
       use_knot_distance="true"
       apply_no_radius="true"
       apply_with_radius="true"
       only_selected="false"
       hide_knots="false" />
    <inkscape:path-effect
       effect="fillet_chamfer"
       id="path-effect20081"
       is_visible="true"
       lpeversion="1"
       nodesatellites_param="F,0,0,1,0,0.18561838,0,1 @ F,0,0,1,0,0.2082844,0,1 @ F,0,0,1,0,0.19336287,0,1"
       unit="px"
       method="auto"
       mode="F"
       radius="0"
       chamfer_steps="1"
       flexible="false"
       use_knot_distance="true"
       apply_no_radius="true"
       apply_with_radius="true"
       only_selected="false"
       hide_knots="false" />
    <inkscape:path-effect
       effect="fillet_chamfer"
       id="path-effect15505"
       is_visible="true"
       lpeversion="1"
       nodesatellites_param="F,0,0,1,0,0.24306796,0,1 @ F,0,0,1,0,0.25090886,0,1 @ F,0,0,1,0,0.25090886,0,1 @ F,0,0,1,0,0.24306796,0,1"
       unit="px"
       method="auto"
       mode="F"
       radius="0"
       chamfer_steps="1"
       flexible="false"
       use_knot_distance="true"
       apply_no_radius="true"
       apply_with_radius="true"
       only_selected="false"
       hide_knots="false" />
    <inkscape:path-effect
       effect="fillet_chamfer"
       id="path-effect28542-4"
       is_visible="true"
       lpeversion="1"
       nodesatellites_param="F,0,0,1,0,0.15741334,0,1 @ F,0,0,1,0,0.27067219,0,1 @ F,0,0,1,0,0.26147445,0,1 @ F,0,0,1,0,0.096658148,0,1 @ F,0,0,1,0,0.14066055,0,1 @ F,0,0,1,0,0.1404256,0,1 @ F,0,0,1,0,0.26497422,0,1 @ F,0,0,1,0,0.25260801,0,1 @ F,0,0,1,0,0.10897686,0,1 @ F,0,0,1,0,0.15640564,0,1"
       unit="px"
       method="auto"
       mode="F"
       radius="0"
       chamfer_steps="1"
       flexible="false"
       use_knot_distance="true"
       apply_no_radius="true"
       apply_with_radius="true"
       only_selected="false"
       hide_knots="false" />
    <inkscape:path-effect
       effect="fillet_chamfer"
       id="path-effect28598-9"
       is_visible="true"
       lpeversion="1"
       nodesatellites_param="F,0,0,1,0,0.21790977,0,1 @ F,0,0,1,0,0.21737871,0,1 @ F,0,0,1,0,0.23003232,0,1 @ F,0,0,1,0,0.26983725,0,1"
       unit="px"
       method="auto"
       mode="F"
       radius="0"
       chamfer_steps="1"
       flexible="false"
       use_knot_distance="true"
       apply_no_radius="true"
       apply_with_radius="true"
       only_selected="false"
       hide_knots="false" />
    <inkscape:path-effect
       effect="fillet_chamfer"
       id="path-effect28598-2"
       is_visible="true"
       lpeversion="1"
       nodesatellites_param="F,0,0,1,0,0.22401312,0,1 @ F,0,0,1,0,0.21568422,0,1 @ F,0,0,1,0,0.20919414,0,1 @ F,0,0,1,0,0.2420621,0,1"
       unit="px"
       method="auto"
       mode="F"
       radius="0"
       chamfer_steps="1"
       flexible="false"
       use_knot_distance="true"
       apply_no_radius="true"
       apply_with_radius="true"
       only_selected="false"
       hide_knots="false" />
    <linearGradient
       inkscape:collect="always"
       xlink:href="#linearGradient2"
       id="linearGradient3"
       x1="-47.029686"
       y1="-4.4979167"
       x2="-46.765102"
       y2="-3.9026041"
       gradientUnits="userSpaceOnUse"
       gradientTransform="translate(5.8378218,-8.6398351)" />
    <linearGradient
       id="linearGradient2"
       inkscape:collect="always">
      <stop
         style="stop-color:#fffff0;stop-opacity:1;"
         offset="0"
         id="stop2" />
      <stop
         style="stop-color:#fffff0;stop-opacity:0;"
         offset="1"
         id="stop3" />
    </linearGradient>
    <linearGradient
       inkscape:collect="always"
       xlink:href="#linearGradient4"
       id="linearGradient5"
       x1="-0.24899747"
       y1="6.351033"
       x2="12.951064"
       y2="6.351033"
       gradientUnits="userSpaceOnUse" />
  </defs>
  <g
     inkscape:label="Capa 1"
     inkscape:groupmode="layer"
     id="layer1">
    <circle
       style="fill:#095e6e;fill-opacity:0;stroke:#0f096e;stroke-width:0.290438;stroke-linecap:round;stroke-linejoin:miter;stroke-dasharray:none;stroke-opacity:0;paint-order:normal"
       id="circle28610"
       cx="5.3378739"
       cy="10.050169"
       r="0.78082258" />
    <rect
       style="fill:url(#linearGradient5);fill-opacity:1;stroke:#0f096e;stroke-width:0.500062;stroke-linecap:round;stroke-opacity:0"
       id="rect4"
       width="12.7"
       height="12.699999"
       x="0.0010335286"
       y="0.001033527"
       ry="0" />
    <path
       id="rect1514"
       style="fill:url(#linearGradient3);fill-opacity:1;stroke:#0f096e;stroke-width:0.489763;stroke-linecap:round;stroke-linejoin:miter;stroke-dasharray:none;stroke-opacity:0;paint-order:normal"
       d="m 8.59786,-4.7821894 a 0.1249449,0.13312509 0 0 0 -0.059428,0.01757 l -1.3404865,0.8020182 a 0.13458671,0.14339815 0 0 0 -0.0031,0.2485636 l 1.329634,0.8402588 a 0.11994065,0.12779321 0 0 0 0.1813843,-0.1085205 l 0.0062,-0.5193481 a 0.27204063,0.28985124 0 0 0 0.010335,0.00155 h 8.4129252 a 0.28081614,0.29920128 0 0 0 0.281119,-0.2997231 V -3.9558833 A 0.28081614,0.29920128 0 0 0 17.135324,-4.2550898 H 8.7224003 a 0.27204063,0.28985124 0 0 0 -0.00258,0 l 0.00465,-0.3922241 A 0.1249449,0.13312509 0 0 0 8.59786,-4.7821894 Z m 7.33702,2.7698567 a 0.11994065,0.12779321 0 0 0 -0.100769,0.125057 l -0.0057,0.5193482 a 0.27204063,0.28985124 0 0 0 -0.01086,-0.00103 H 7.405168 a 0.28081614,0.29920128 0 0 0 -0.2811198,0.2992066 v 0.1560628 a 0.28081614,0.29920128 0 0 0 0.2811198,0.2992065 h 8.412406 a 0.27204063,0.28985124 0 0 0 0.0026,0 l -0.0046,0.3922242 a 0.1249449,0.13312509 0 0 0 0.126608,0.1348754 0.1249449,0.13312509 0 0 0 0.05943,-0.01757 l 1.341003,-0.8020183 a 0.13458671,0.14339815 0 0 0 0.0026,-0.2485636 l -1.32965,-0.8402587 a 0.11994065,0.12779321 0 0 0 -0.08061,-0.016536 z" />
    <path
       id="rect1514-1"
       style="fill:#ffffff;fill-opacity:1;stroke:#0f096e;stroke-width:0.489763;stroke-linecap:round;stroke-linejoin:miter;stroke-dasharray:none;stroke-opacity:0;paint-order:normal"
       d="m 2.6778079,4.0813522 a 0.1249449,0.13312509 0 0 0 -0.059428,0.01757 L 1.2778934,4.9009404 a 0.13458671,0.14339815 0 0 0 -0.0031,0.2485636 l 1.329634,0.8402588 A 0.11994065,0.12779321 0 0 0 2.7858117,5.8812423 l 0.0062,-0.5193481 a 0.27204063,0.28985124 0 0 0 0.010335,0.00155 H 11.215271 A 0.28081614,0.29920128 0 0 0 11.49639,5.0637211 V 4.9076583 A 0.28081614,0.29920128 0 0 0 11.215271,4.6084518 H 2.8023482 a 0.27204063,0.28985124 0 0 0 -0.00258,0 l 0.00465,-0.3922241 A 0.1249449,0.13312509 0 0 0 2.6778079,4.0813522 Z m 7.3370191,2.7698567 a 0.11994065,0.12779321 0 0 0 -0.1007677,0.125057 l -0.0057,0.5193482 a 0.27204063,0.28985124 0 0 0 -0.01086,-0.00103 H 1.4851159 A 0.28081614,0.29920128 0 0 0 1.2039961,7.7937867 V 7.9498495 A 0.28081614,0.29920128 0 0 0 1.4851159,8.249056 h 8.4124064 a 0.27204063,0.28985124 0 0 0 0.0026,0 l -0.0046,0.3922242 a 0.1249449,0.13312509 0 0 0 0.1266067,0.1348754 0.1249449,0.13312509 0 0 0 0.05943,-0.01757 l 1.341003,-0.8020183 a 0.13458671,0.14339815 0 0 0 0.0026,-0.2485636 L 10.095512,6.867745 a 0.11994065,0.12779321 0 0 0 -0.08061,-0.016536 z" />
  </g>
</svg>
