<?xml version="1.0" encoding="UTF-8" standalone="no"?>
<!-- Created with Inkscape (http://www.inkscape.org/) -->

<svg
   width="48"
   height="48"
   viewBox="0 0 12.7 12.7"
   version="1.1"
   id="svg5"
   xmlns:xlink="http://www.w3.org/1999/xlink"
   xmlns="http://www.w3.org/2000/svg">
  <defs
     id="defs2">
    <linearGradient
       id="linearGradient28735">
      <stop
         style="stop-color:#0bc2d4;stop-opacity:1;"
         offset="0"
         id="stop28731" />
      <stop
         style="stop-color:#0024f2;stop-opacity:0.87843138;"
         offset="1"
         id="stop28733" />
    </linearGradient>
    <linearGradient
       id="linearGradient20237">
      <stop
         style="stop-color:#003bf2;stop-opacity:0.87843138;"
         offset="0"
         id="stop20233" />
      <stop
         style="stop-color:#0f096e;stop-opacity:1;"
         offset="1"
         id="stop20235" />
    </linearGradient>
    <linearGradient
       id="linearGradient20193">
      <stop
         style="stop-color:#0b02b2;stop-opacity:1;"
         offset="0"
         id="stop20189" />
      <stop
         style="stop-color:#003bf2;stop-opacity:0.87894738;"
         offset="1"
         id="stop20191" />
    </linearGradient>
    <linearGradient
       xlink:href="#linearGradient20193"
       id="linearGradient20195"
       x1="1.4301697"
       y1="4.2859855"
       x2="11.0391"
       y2="4.2859855"
       gradientUnits="userSpaceOnUse"
       gradientTransform="matrix(1.1191958,0,0,1.19247,-0.53927869,-0.29174213)" />
    <linearGradient
       xlink:href="#linearGradient20237"
       id="linearGradient20230"
       gradientUnits="userSpaceOnUse"
       gradientTransform="matrix(-1.1191958,0,0,-1.19247,13.403721,12.70184)"
       x1="1.4301697"
       y1="4.2859855"
       x2="11.0391"
       y2="4.2859855" />
    <linearGradient
       xlink:href="#linearGradient28735"
       id="linearGradient28737"
       x1="1.3480318"
       y1="6.0855633"
       x2="11.501693"
       y2="6.0855633"
       gradientUnits="userSpaceOnUse" />
  </defs>
  <g
     id="layer1">
    <path
       id="rect1514"
       style="fill:url(#linearGradient20195);fill-opacity:1;stroke:#0f096e;stroke-width:0.489763;stroke-linecap:round;stroke-linejoin:miter;stroke-dasharray:none;stroke-opacity:0;paint-order:normal"
       d="M 2.760134,3.8577337 A 0.1249449,0.13312509 0 0 0 2.700563,3.8749877 L 1.3599233,4.6773142 a 0.13458671,0.14339815 0 0 0 -0.00289,0.248339 L 2.6866865,5.7661853 A 0.11994065,0.12779321 0 0 0 2.8682917,5.6577302 l 0.00579,-0.5194784 a 0.27204063,0.28985124 0 0 0 0.010409,0.00123 H 11.297313 A 0.28081614,0.29920128 0 0 0 11.578395,4.8399979 V 4.6840927 A 0.28081614,0.29920128 0 0 0 11.297313,4.3846068 H 2.8844814 a 0.27204063,0.28985124 0 0 0 -0.00232,0 l 0.00462,-0.3919196 A 0.1249449,0.13312509 0 0 0 2.760134,3.8577337 Z" />
    <path
       id="rect1514-9"
       style="fill:url(#linearGradient20230);fill-opacity:1;stroke:#0f096e;stroke-width:0.489763;stroke-linecap:round;stroke-linejoin:miter;stroke-dasharray:none;stroke-opacity:0;paint-order:normal"
       d="m 10.104308,8.5523641 a 0.1249449,0.13312509 0 0 0 0.05957,-0.017254 l 1.34064,-0.8023265 a 0.13458671,0.14339815 0 0 0 0.0029,-0.248339 L 10.177756,6.6439125 A 0.11994065,0.12779321 0 0 0 9.9961504,6.7523676 l -0.0058,0.5194784 a 0.27204063,0.28985124 0 0 0 -0.01041,-0.00123 H 1.567129 A 0.28081614,0.29920128 0 0 0 1.286047,7.5700999 V 7.7260051 A 0.28081614,0.29920128 0 0 0 1.567129,8.025491 h 8.4128324 a 0.27204063,0.28985124 0 0 0 0.0023,0 l -0.0046,0.3919196 a 0.1249449,0.13312509 0 0 0 0.1266466,0.1349535 z" />
    <path
       id="path28507"
       style="fill:url(#linearGradient28737);fill-opacity:1;stroke:#0f096e;stroke-width:0.642262;stroke-linecap:round;stroke-linejoin:miter;stroke-dasharray:none;stroke-opacity:0;paint-order:normal"
       d="M 7.314799 0.72967122 A 0.13673536 0.13673536 0 0 0 7.1763062 0.86816406 L 7.2057617 2.8628743 A 0.01599899 0.01599899 0 0 1 7.1747559 2.868042 L 6.5003784 0.97926839 A 0.36466486 0.36466486 0 0 0 6.1510457 0.73742269 L 6.0487264 0.73897298 A 0.27301317 0.27301317 0 0 0 5.780009 1.0138916 L 5.7955119 3.0680298 A 0.16265802 0.16265802 0 0 0 5.9541585 3.2292603 L 6.0575114 3.2323608 A 0.14961454 0.14961454 0 0 0 6.2109904 3.0799154 L 6.1758504 1.262972 A 0.01736374 0.01736374 0 0 1 6.2099569 1.2567708 L 6.8161214 2.9977498 A 0.35548306 0.35548306 0 0 0 7.1520182 3.236495 L 7.3049805 3.236495 A 0.26089905 0.26089905 0 0 0 7.5659465 2.9713949 L 7.5333903 0.87281494 A 0.14456108 0.14456108 0 0 0 7.3907633 0.73070475 L 7.314799 0.72967122 z M 8.6092936 0.78031413 A 0.16536458 0.16536458 0 0 0 8.443929 0.94567871 L 8.443929 3.1336589 A 0.17053223 0.17053223 0 0 0 8.6144613 3.3041911 L 8.7229818 3.3041911 A 0.16019694 0.16019694 0 0 0 8.8831787 3.1439941 L 8.8831787 0.95291341 A 0.17247237 0.17247237 0 0 0 8.7110962 0.78031413 L 8.6092936 0.78031413 z M 3.356901 0.79116618 A 0.11687008 0.11687008 0 0 0 3.2401123 0.90743815 L 3.2339111 2.4592814 C 3.2193841 3.574432 4.9026858 3.5585926 4.8989258 2.4442952 L 4.9025431 0.95136312 A 0.1258168 0.1258168 0 0 0 4.7764526 0.82527262 L 4.7092733 0.82527262 A 0.12455045 0.12455045 0 0 0 4.5847331 0.94826253 L 4.5661296 2.4194906 C 4.5822665 3.0696589 3.524346 3.0984983 3.534668 2.4406779 L 3.5419027 0.90795492 A 0.11623484 0.11623484 0 0 0 3.4256307 0.79116618 L 3.356901 0.79116618 z M 10.979692 8.838737 C 10.888097 8.8394649 10.789991 8.8983496 10.74198 9.0268392 L 10.16217 10.586951 L 9.5229329 9.0123698 C 9.3860748 8.708096 9.0265126 8.837977 9.145695 9.180835 L 9.9342773 11.063924 C 10.042002 11.353567 10.287237 11.353281 10.393681 11.100614 L 11.160042 9.1730835 C 11.233053 8.9610242 11.11356 8.8376731 10.979692 8.838737 z M 3.2628499 8.8552734 C 3.2594947 8.8553097 3.255912 8.855568 3.2525146 8.8557902 C 1.1776499 8.9914619 1.1157476 11.323444 3.2220256 11.441162 C 3.3317211 11.447293 3.4215411 11.372035 3.4225301 11.280965 C 3.4238221 11.161983 3.329094 11.079312 3.21014 11.079944 C 1.8485497 11.087178 1.5322212 9.4371039 3.2525146 9.2511149 C 3.3605776 9.2394316 3.4490985 9.1519295 3.4494019 9.046993 C 3.4497074 8.9414282 3.3668627 8.8541499 3.2628499 8.8552734 z M 5.0110636 8.867159 A 1.2269103 1.2269106 0 0 0 3.7842651 10.093958 A 1.2269103 1.2269106 0 0 0 5.0110636 11.321273 A 1.2269103 1.2269106 0 0 0 6.2383789 10.093958 A 1.2269103 1.2269106 0 0 0 5.0110636 8.867159 z M 8.4630493 8.8707764 A 0.13673394 0.13673394 0 0 0 8.3245565 9.009786 L 8.354012 11.003979 A 0.01599895 0.01599895 0 0 1 8.3230062 11.009664 L 7.6486287 9.1208903 A 0.36466493 0.36466493 0 0 0 7.2992961 8.8785278 L 7.1969767 8.8805949 A 0.27301305 0.27301305 0 0 0 6.9282593 9.1555135 L 6.9437622 11.209652 A 0.16265824 0.16265824 0 0 0 7.1024089 11.370882 L 7.2057617 11.373466 A 0.14961453 0.14961453 0 0 0 7.3592407 11.221021 L 7.3246175 9.4045939 A 0.01736378 0.01736378 0 0 1 7.3582072 9.3983927 L 7.9643717 11.139372 A 0.35548288 0.35548288 0 0 0 8.3002686 11.3776 L 8.4532308 11.3776 A 0.26089884 0.26089884 0 0 0 8.7141968 11.113017 L 8.6816406 9.0144368 A 0.14456258 0.14456258 0 0 0 8.5390137 8.8718099 L 8.4630493 8.8707764 z M 5.0110636 9.2759196 A 0.81794013 0.81794036 0 0 1 5.8291016 10.093958 A 0.81794013 0.81794036 0 0 1 5.0110636 10.911995 A 0.81794013 0.81794036 0 0 1 4.1935425 10.093958 A 0.81794013 0.81794036 0 0 1 5.0110636 9.2759196 z " />
    <circle
       style="fill:#095e6e;fill-opacity:0;stroke:#0f096e;stroke-width:0.290438;stroke-linecap:round;stroke-linejoin:miter;stroke-dasharray:none;stroke-opacity:0;paint-order:normal"
       id="circle28610"
       cx="5.3378739"
       cy="10.050169"
       r="0.78082258" />
  </g>
</svg>
